<?xml version="1.0" encoding="UTF-8"?>
<!DOCTYPE svg PUBLIC "-//W3C//DTD SVG 1.1//EN" "http://www.w3.org/Graphics/SVG/1.1/DTD/svg11.dtd">
<svg xmlns="http://www.w3.org/2000/svg" version="1.1" width="288px" height="288px" style="shape-rendering:geometricPrecision; text-rendering:geometricPrecision; image-rendering:optimizeQuality; fill-rule:evenodd; clip-rule:evenodd" xmlns:xlink="http://www.w3.org/1999/xlink">
<g><path style="opacity:0.012" fill="#787674" d="M 280.5,33.5 C 189.166,33.6667 97.8327,33.5 6.5,33C 98.0009,32.1676 189.334,32.3342 280.5,33.5 Z"/></g>
<g><path style="opacity:0.004" fill="#7b7874" d="M 4.5,33.5 C 5.83333,34.1667 5.83333,34.1667 4.5,33.5 Z"/></g>
<g><path style="opacity:0.004" fill="#787774" d="M 280.5,34.5 C 280.5,34.1667 280.5,33.8333 280.5,33.5C 283.167,33.8333 283.167,34.1667 280.5,34.5 Z"/></g>
<g><path style="opacity:0.878" fill="#777572" d="M 280.5,34.5 C 281.301,36.5084 282.634,37.0084 284.5,36C 283.742,37.3639 284.242,38.5305 286,39.5C 286.383,38.944 286.883,38.6107 287.5,38.5C 287.5,39.1667 287.5,39.8333 287.5,40.5C 286.167,40.8333 286.167,41.1667 287.5,41.5C 287.5,109.5 287.5,177.5 287.5,245.5C 286.167,245.833 286.167,246.167 287.5,246.5C 287.5,247.167 287.5,247.833 287.5,248.5C 287.167,248.5 286.833,248.5 286.5,248.5C 286.167,247.167 285.833,247.167 285.5,248.5C 284.833,248.5 284.5,248.833 284.5,249.5C 283.167,249.833 283.167,250.167 284.5,250.5C 283.081,250.639 281.748,251.139 280.5,252C 189.167,252.5 97.8339,252.667 6.5,252.5C 5.69935,250.492 4.36602,249.992 2.5,251C 3.25827,249.636 2.75827,248.469 1,247.5C 0.617425,248.056 0.117425,248.389 -0.5,248.5C -0.5,247.833 -0.5,247.167 -0.5,246.5C 0.833333,246.167 0.833333,245.833 -0.5,245.5C -0.5,177.5 -0.5,109.5 -0.5,41.5C 0.833333,41.1667 0.833333,40.8333 -0.5,40.5C -0.5,39.8333 -0.5,39.1667 -0.5,38.5C 1.10018,39.512 2.43351,39.012 3.5,37C 2.65975,35.3335 3.15975,35.1669 5,36.5C 5.5,36 6,35.5 6.5,35C 97.8327,34.5 189.166,34.3333 280.5,34.5 Z"/></g>
<g><path style="opacity:1" fill="#b5b5b4" d="M 253.5,38.5 C 255.167,38.5 256.833,38.5 258.5,38.5C 258.5,40.1667 258.5,41.8333 258.5,43.5C 256.833,43.5 255.167,43.5 253.5,43.5C 253.5,41.8333 253.5,40.1667 253.5,38.5 Z"/></g>
<g><path style="opacity:1" fill="#b5b5b4" d="M 262.5,38.5 C 264.167,38.5 265.833,38.5 267.5,38.5C 267.5,40.1667 267.5,41.8333 267.5,43.5C 265.833,43.5 264.167,43.5 262.5,43.5C 262.5,41.8333 262.5,40.1667 262.5,38.5 Z"/></g>
<g><path style="opacity:1" fill="#b5b5b4" d="M 271.5,38.5 C 273.167,38.5 274.833,38.5 276.5,38.5C 276.5,40.1667 276.5,41.8333 276.5,43.5C 274.833,43.5 273.167,43.5 271.5,43.5C 271.5,41.8333 271.5,40.1667 271.5,38.5 Z"/></g>
<g><path style="opacity:1" fill="#f8f8f8" d="M 5.5,46.5 C 97.5006,46.3333 189.501,46.5 281.5,47C 282.333,47.8333 283.167,48.6667 284,49.5C 284.833,113.836 284.667,178.169 283.5,242.5C 281.976,244.858 279.976,246.691 277.5,248C 187.086,248.995 96.7522,248.661 6.5,247C 5.33333,245.167 4.16667,243.333 3,241.5C 2.33333,177.5 2.33333,113.5 3,49.5C 4.04499,48.6266 4.87833,47.6266 5.5,46.5 Z"/></g>
<g><path style="opacity:1" fill="#acb6bf" d="M 135.5,86.5 C 134.07,88.7439 132.07,90.5772 129.5,92C 128.207,92.49 126.873,92.6567 125.5,92.5C 125.719,93.675 125.386,94.675 124.5,95.5C 117.383,98.2423 111.55,101.909 107,106.5C 106.667,106.167 106.333,105.833 106,105.5C 103.297,107.988 100.13,109.821 96.5,111C 93.2866,113.82 89.9533,116.32 86.5,118.5C 81.749,116.084 78.4157,112.417 76.5,107.5C 77.9425,101.281 80.9425,95.9475 85.5,91.5C 86.7722,90.954 88.1055,90.6207 89.5,90.5C 93.5957,91.1906 97.5957,92.1906 101.5,93.5C 102.894,93.3793 104.228,93.046 105.5,92.5C 107.3,88.4108 108.466,84.0775 109,79.5C 109.833,77.3333 111.333,75.8333 113.5,75C 119.569,74.1955 125.569,74.5288 131.5,76C 134.131,78.9307 135.464,82.4307 135.5,86.5 Z"/></g>
<g><path style="opacity:1" fill="#a6afb7" d="M 135.5,86.5 C 135.081,89.3245 136.081,91.4912 138.5,93C 144.801,92.124 151.135,91.4573 157.5,91C 161.399,95.3023 164.399,100.136 166.5,105.5C 165.603,104.402 164.77,104.402 164,105.5C 163.692,104.692 163.192,104.025 162.5,103.5C 154.61,107.03 147.443,111.697 141,117.5C 139.493,116.465 137.993,116.632 136.5,118C 137.711,118.893 137.711,119.726 136.5,120.5C 135.265,119.66 134.265,118.66 133.5,117.5C 125.003,107.899 117.003,108.233 109.5,118.5C 107.036,122.78 103.369,125.947 98.5,128C 97.2986,128.903 96.4652,130.069 96,131.5C 95.586,131.043 95.086,130.709 94.5,130.5C 91.0299,132.927 87.5299,135.26 84,137.5C 83.6667,137.167 83.3333,136.833 83,136.5C 82,138.167 80.6667,139.5 79,140.5C 77.9568,136.774 77.4568,137.107 77.5,141.5C 76.3709,139.372 76.2042,137.039 77,134.5C 80.6317,131.87 83.965,128.87 87,125.5C 87.7033,123.071 87.5366,120.738 86.5,118.5C 89.9533,116.32 93.2866,113.82 96.5,111C 100.13,109.821 103.297,107.988 106,105.5C 106.333,105.833 106.667,106.167 107,106.5C 111.55,101.909 117.383,98.2423 124.5,95.5C 125.386,94.675 125.719,93.675 125.5,92.5C 126.873,92.6567 128.207,92.49 129.5,92C 132.07,90.5772 134.07,88.7439 135.5,86.5 Z"/></g>
<g><path style="opacity:1" fill="#f6f7f7" d="M 133.5,117.5 C 134.427,131.917 128.094,136.917 114.5,132.5C 110.119,128.846 108.452,124.18 109.5,118.5C 117.003,108.233 125.003,107.899 133.5,117.5 Z"/></g>
<g><path style="opacity:1" fill="#9ea6af" d="M 166.5,105.5 C 166.662,107.527 166.495,109.527 166,111.5C 162.478,114.266 159.145,117.266 156,120.5C 155.322,122.598 155.489,124.598 156.5,126.5C 155.603,127.598 154.77,127.598 154,126.5C 153.147,128.125 152.147,128.458 151,127.5C 148.265,130.649 145.265,132.649 142,133.5C 139.408,135.639 136.742,137.639 134,139.5C 132.636,138.742 131.469,139.242 130.5,141C 130.833,141.333 131.167,141.667 131.5,142C 127.58,142.962 123.914,144.462 120.5,146.5C 118.487,149.38 116.32,151.38 114,152.5C 112.16,151.167 111.66,151.334 112.5,153C 111.207,153.49 109.873,153.657 108.5,153.5C 108.39,157.731 109.39,161.564 111.5,165C 110.748,165.671 110.414,166.504 110.5,167.5C 109.883,167.389 109.383,167.056 109,166.5C 108.333,162.5 107.667,158.5 107,154.5C 106.167,153.667 105.333,152.833 104.5,152C 98.4579,152.793 92.4579,153.793 86.5,155C 82.4293,151.118 79.4293,146.618 77.5,141.5C 77.4568,137.107 77.9568,136.774 79,140.5C 80.6667,139.5 82,138.167 83,136.5C 83.3333,136.833 83.6667,137.167 84,137.5C 87.5299,135.26 91.0299,132.927 94.5,130.5C 95.086,130.709 95.586,131.043 96,131.5C 96.4652,130.069 97.2986,128.903 98.5,128C 103.369,125.947 107.036,122.78 109.5,118.5C 108.452,124.18 110.119,128.846 114.5,132.5C 128.094,136.917 134.427,131.917 133.5,117.5C 134.265,118.66 135.265,119.66 136.5,120.5C 137.711,119.726 137.711,118.893 136.5,118C 137.993,116.632 139.493,116.465 141,117.5C 147.443,111.697 154.61,107.03 162.5,103.5C 163.192,104.025 163.692,104.692 164,105.5C 164.77,104.402 165.603,104.402 166.5,105.5 Z"/></g>
<g><path style="opacity:1" fill="#969fa6" d="M 156.5,126.5 C 159.728,129.04 162.895,131.707 166,134.5C 165.683,141.775 163.183,148.275 158.5,154C 157.127,154.875 155.627,155.375 154,155.5C 149.789,154.312 145.622,152.978 141.5,151.5C 140.062,151.719 138.729,152.219 137.5,153C 135.324,157.203 134.158,161.703 134,166.5C 133.5,168.333 132.333,169.5 130.5,170C 124.5,170.667 118.5,170.667 112.5,170C 111.244,169.583 110.577,168.75 110.5,167.5C 110.414,166.504 110.748,165.671 111.5,165C 109.39,161.564 108.39,157.731 108.5,153.5C 109.873,153.657 111.207,153.49 112.5,153C 111.66,151.334 112.16,151.167 114,152.5C 116.32,151.38 118.487,149.38 120.5,146.5C 123.914,144.462 127.58,142.962 131.5,142C 131.167,141.667 130.833,141.333 130.5,141C 131.469,139.242 132.636,138.742 134,139.5C 136.742,137.639 139.408,135.639 142,133.5C 145.265,132.649 148.265,130.649 151,127.5C 152.147,128.458 153.147,128.125 154,126.5C 154.77,127.598 155.603,127.598 156.5,126.5 Z"/></g>
<g><path style="opacity:1" fill="#69757b" d="M 185.5,155.5 C 180.572,157.869 175.905,160.702 171.5,164C 165.48,169.751 159.48,174.751 153.5,179C 151.21,180.777 149.543,182.944 148.5,185.5C 142.169,181.678 141.003,176.678 145,170.5C 146.141,168.391 147.641,166.558 149.5,165C 154.282,165.068 158.949,165.735 163.5,167C 165.375,162.728 167.042,158.395 168.5,154C 173.5,153.333 178.5,153.333 183.5,154C 184.416,154.278 185.082,154.778 185.5,155.5 Z"/></g>
<g><path style="opacity:1" fill="#646f74" d="M 185.5,155.5 C 187.139,158.87 188.139,162.537 188.5,166.5C 186.933,165.319 186.099,163.653 186,161.5C 185.667,163.167 185.333,164.833 185,166.5C 180.557,167.553 177.057,170.386 174.5,175C 175.872,175.402 177.205,175.902 178.5,176.5C 179.736,175.754 181.07,175.421 182.5,175.5C 182.5,176.5 182.5,177.5 182.5,178.5C 174.76,175.708 168.76,177.708 164.5,184.5C 164.539,183.244 164.039,182.244 163,181.5C 162.333,182.833 161.667,184.167 161,185.5C 160.667,185.167 160.333,184.833 160,184.5C 158.152,186.679 155.985,188.513 153.5,190C 150.473,193.407 147.64,196.907 145,200.5C 144.658,198.381 143.825,198.047 142.5,199.5C 144.071,196.256 146.405,193.589 149.5,191.5C 150.771,189.194 150.438,187.194 148.5,185.5C 149.543,182.944 151.21,180.777 153.5,179C 159.48,174.751 165.48,169.751 171.5,164C 175.905,160.702 180.572,157.869 185.5,155.5 Z"/></g>
<g><path style="opacity:1" fill="#92989b" d="M 203.5,165.5 C 199.802,165.552 196.135,165.886 192.5,166.5C 196.044,164.431 199.71,164.098 203.5,165.5 Z"/></g>
<g><path style="opacity:1" fill="#585f63" d="M 188.5,166.5 C 189.961,167.686 191.295,167.686 192.5,166.5C 196.135,165.886 199.802,165.552 203.5,165.5C 206.655,168.996 208.988,172.996 210.5,177.5C 210.333,178.5 210.167,179.5 210,180.5C 207.667,182.5 205.333,184.5 203,186.5C 202.51,187.793 202.343,189.127 202.5,190.5C 201.732,189.737 201.232,188.737 201,187.5C 200.667,188.833 200.333,190.167 200,191.5C 199.282,190.549 198.449,190.383 197.5,191C 192.86,195.318 187.86,199.151 182.5,202.5C 181.304,202.154 181.304,201.654 182.5,201C 181.906,200.536 181.239,200.369 180.5,200.5C 187.98,196.523 190.146,190.523 187,182.5C 185.629,180.959 184.129,179.625 182.5,178.5C 182.5,177.5 182.5,176.5 182.5,175.5C 181.07,175.421 179.736,175.754 178.5,176.5C 177.205,175.902 175.872,175.402 174.5,175C 177.057,170.386 180.557,167.553 185,166.5C 185.333,164.833 185.667,163.167 186,161.5C 186.099,163.653 186.933,165.319 188.5,166.5 Z"/></g>
<g><path style="opacity:1" fill="#f5f5f5" d="M 182.5,178.5 C 184.129,179.625 185.629,180.959 187,182.5C 190.146,190.523 187.98,196.523 180.5,200.5C 168.833,201.5 163.5,196.167 164.5,184.5C 168.76,177.708 174.76,175.708 182.5,178.5 Z"/></g>
<g><path style="opacity:1" fill="#4e5357" d="M 202.5,190.5 C 205.889,192.887 208.555,195.887 210.5,199.5C 208.982,204.705 206.316,209.205 202.5,213C 201.5,213.167 200.5,213.333 199.5,213.5C 196.624,212.319 193.624,211.319 190.5,210.5C 189.833,210.833 189.167,211.167 188.5,211.5C 187.134,214.692 186.301,218.026 186,221.5C 185.167,222.333 184.333,223.167 183.5,224C 178.467,224.829 173.467,224.662 168.5,223.5C 166.956,219.098 165.29,214.765 163.5,210.5C 163.755,209.064 164.088,207.564 164.5,206C 166.718,204.909 168.884,203.743 171,202.5C 172.726,203.576 174.559,203.743 176.5,203C 175.167,202.667 173.833,202.333 172.5,202C 175.365,201.817 178.031,201.317 180.5,200.5C 181.239,200.369 181.906,200.536 182.5,201C 181.304,201.654 181.304,202.154 182.5,202.5C 187.86,199.151 192.86,195.318 197.5,191C 198.449,190.383 199.282,190.549 200,191.5C 200.333,190.167 200.667,188.833 201,187.5C 201.232,188.737 201.732,189.737 202.5,190.5 Z"/></g>
<g><path style="opacity:1" fill="#5c6569" d="M 164.5,184.5 C 163.5,196.167 168.833,201.5 180.5,200.5C 178.031,201.317 175.365,201.817 172.5,202C 173.833,202.333 175.167,202.667 176.5,203C 174.559,203.743 172.726,203.576 171,202.5C 168.884,203.743 166.718,204.909 164.5,206C 164.088,207.564 163.755,209.064 163.5,210.5C 160.606,210.556 157.939,211.39 155.5,213C 153.5,213.667 151.5,213.667 149.5,213C 145.978,209.122 143.644,204.622 142.5,199.5C 143.825,198.047 144.658,198.381 145,200.5C 147.64,196.907 150.473,193.407 153.5,190C 155.985,188.513 158.152,186.679 160,184.5C 160.333,184.833 160.667,185.167 161,185.5C 161.667,184.167 162.333,182.833 163,181.5C 164.039,182.244 164.539,183.244 164.5,184.5 Z"/></g>
<g><path style="opacity:0.016" fill="#777873" d="M 285.5,248.5 C 285.833,248.5 286.167,248.5 286.5,248.5C 286.315,249.17 285.981,249.17 285.5,248.5 Z"/></g>
<g><path style="opacity:0.016" fill="#777773" d="M 284.5,249.5 C 284.833,249.5 285.167,249.5 285.5,249.5C 285.315,250.17 284.981,250.17 284.5,249.5 Z"/></g>
<g><path style="opacity:0.004" fill="#797674" d="M 6.5,252.5 C 6.5,252.833 6.5,253.167 6.5,253.5C 3.83333,253.167 3.83333,252.833 6.5,252.5 Z"/></g>
<g><path style="opacity:0.004" fill="#7b7873" d="M 281.5,252.5 C 282.833,253.167 282.833,253.167 281.5,252.5 Z"/></g>
<g><path style="opacity:0.012" fill="#787674" d="M 6.5,253.5 C 97.8339,253.333 189.167,253.5 280.5,254C 188.999,254.832 97.6658,254.666 6.5,253.5 Z"/></g>
</svg>
