<svg width="36" height="42" viewBox="0 0 36 42" fill="none" xmlns="http://www.w3.org/2000/svg">
<path d="M17.8366 0.37851C7.94242 0.37851 0.191406 5.19727 0.191406 11.3481V30.153C0.191406 36.3038 7.94242 41.1225 17.8366 41.1225C27.7307 41.1225 35.4818 36.3038 35.4818 30.153V11.3481C35.4818 5.19727 27.7307 0.37851 17.8366 0.37851ZM32.5409 20.7505C32.5409 22.6349 31.0925 24.5566 28.5689 26.0237C25.7273 27.675 21.9152 28.5859 17.8366 28.5859C13.758 28.5859 9.94588 27.675 7.10427 26.0237C4.58064 24.5566 3.13227 22.6349 3.13227 20.7505V17.491C6.26796 20.4293 11.6295 22.3176 17.8366 22.3176C24.0436 22.3176 29.4052 20.4214 32.5409 17.491V20.7505ZM7.10427 6.07484C9.94588 4.42353 13.758 3.51266 17.8366 3.51266C21.9152 3.51266 25.7273 4.42353 28.5689 6.07484C31.0925 7.54201 32.5409 9.46364 32.5409 11.3481C32.5409 13.2325 31.0925 15.1541 28.5689 16.6213C25.7273 18.2726 21.9152 19.1834 17.8366 19.1834C13.758 19.1834 9.94588 18.2726 7.10427 16.6213C4.58064 15.1541 3.13227 13.2325 3.13227 11.3481C3.13227 9.46364 4.58064 7.54201 7.10427 6.07484ZM28.5689 35.4262C25.7273 37.0775 21.9152 37.9884 17.8366 37.9884C13.758 37.9884 9.94588 37.0775 7.10427 35.4262C4.58064 33.959 3.13227 32.0374 3.13227 30.153V26.8935C6.26796 29.8317 11.6295 31.7201 17.8366 31.7201C24.0436 31.7201 29.4052 29.8239 32.5409 26.8935V30.153C32.5409 32.0374 31.0925 33.959 28.5689 35.4262Z" fill="#C1C1C4"/>
</svg>
